<svg height="511pt" viewBox="-70 1 511 511.999" width="511pt" xmlns="http://www.w3.org/2000/svg"><g fill-rule="evenodd"><path d="m160.5 60v-50h-50v50h-50v-50h-50v100c0 5.5 4.5 10 10 10h330c5.5 0 10-4.5 10-10v-100h-50v50h-50v-50h-50v50zm0 0" fill="#b6bccf"/><path d="m345.5 120h-320v30c0 5.5 4.5 10 10 10h300c5.5 0 10-4.5 10-10zm0 0" fill="#8690af"/><path d="m325.5 160h-280l-25 302h120v-75c0-24.75 20.25-45 45-45s45 20.25 45 45v75h120zm-140 64.335938c11 0 20 9 20 20v33.332031h-40v-33.332031c0-11 9-20 20-20zm0 0" fill="#b6bccf"/><path d="m205.5 244.335938c0-11-9-20-20-20s-20 9-20 20v33.332031h40zm0 0" fill="#8690af"/><path d="m230.5 387c0-24.75-20.25-45-45-45s-45 20.25-45 45v75h90zm0 0" fill="#c68a65"/><path d="m230.5 462h-210c-5.5 0-10 4.5-10 10v30h350v-30c0-5.5-4.5-10-10-10zm0 0" fill="#8690af"/></g><path d="m359.902344 454.355469-23.546875-284.398438c10.628906-.457031 19.144531-9.21875 19.144531-19.957031v-20.660156c8.609375-2.226563 15-10.042969 15-19.339844v-100c0-5.523438-4.476562-10-10-10h-50c-5.523438 0-10 4.476562-10 10v40h-30v-40c0-5.523438-4.476562-10-10-10h-50c-5.523438 0-10 4.476562-10 10v40h-30v-40c0-5.523438-4.476562-10-10-10h-50c-5.523438 0-10 4.476562-10 10v40h-30v-40c0-5.523438-4.476562-10-10-10h-50c-2.652344 0-5.195312 1.054688-7.070312 2.929688s-2.929688 4.417968-2.929688 7.070312v100c0 9.296875 6.386719 17.113281 15 19.339844v20.660156c0 10.738281 8.511719 19.5 19.140625 19.957031l-23.542969 284.398438c-6.300781 3.371093-10.597656 10.015625-10.597656 17.644531v30c0 5.523438 4.476562 10 10 10h350c5.523438 0 10-4.476562 10-10v-30c0-7.628906-4.300781-14.273438-10.597656-17.644531zm-209.402344-2.355469v-65c0-19.296875 15.699219-35 35-35 19.296875 0 35 15.703125 35 35v65zm90-55h10c5.523438 0 10-4.476562 10-10s-4.476562-10-10-10h-10.929688c-4.714843-25.566406-27.160156-45-54.070312-45-30.328125 0-55 24.671875-55 55v25h-10c-5.523438 0-10 4.476562-10 10s4.476562 10 10 10h10v20h-99.136719l20.03125-242h14.105469c5.523438 0 10-4.476562 10-10s-4.476562-10-10-10h-12.449219l1.65625-20h261.585938l1.65625 20h-12.449219c-5.523438 0-10 4.476562-10 10s4.476562 10 10 10h14.105469l16.722656 202h-16.160156c-5.523438 0-10 4.476562-10 10s4.476562 10 10 10h17.8125l1.65625 20h-99.136719zm-190-377v40c0 5.523438 4.476562 10 10 10h50c5.523438 0 10-4.476562 10-10v-40h30v40c0 5.523438 4.476562 10 10 10h50c5.523438 0 10-4.476562 10-10v-40h30v40c0 5.523438 4.476562 10 10 10h50c5.519531 0 10-4.476562 10-10v-40h30v90h-215c-5.523438 0-10 4.476562-10 10s4.476562 10 10 10h200v20h-300v-20h10c5.523438 0 10-4.476562 10-10s-4.476562-10-10-10h-25v-90zm-30 472v-20h.011719.007812 329.949219.019531.011719v20zm0 0"/><path d="m185.5 214.335938c-13.035156 0-24.152344 8.359374-28.28125 20h-11.71875c-5.523438 0-10 4.476562-10 10 0 5.519531 4.476562 10 10 10h10v23.332031c0 5.523437 4.476562 10 10 10h40c5.523438 0 10-4.476563 10-10v-33.332031c0-16.542969-13.457031-30-30-30zm10 53.332031h-20v-23.332031c0-5.515626 4.484375-10 10-10 5.511719 0 10 4.484374 10 10zm0 0"/><path d="m107.167969 316.652344h-20c-5.523438 0-10 4.476562-10 10 0 5.519531 4.476562 10 10 10h20c5.523437 0 10-4.480469 10-10 0-5.523438-4.476563-10-10-10zm0 0"/><path d="m277.167969 267.664062h-20c-5.519531 0-10 4.480469-10 10 0 5.523438 4.480469 10 10 10h20c5.523437 0 10-4.476562 10-10 0-5.519531-4.476563-10-10-10zm0 0"/><path d="m170.5 412h-.007812c-5.519532 0-9.996094 4.476562-9.996094 10s4.480468 10 10.003906 10 10-4.476562 10-10-4.476562-10-10-10zm0 0"/><path d="m275.171875 412h-.007813c-5.523437 0-9.996093 4.476562-9.996093 10s4.480469 10 10.003906 10 10-4.476562 10-10-4.476563-10-10-10zm0 0"/><path d="m90.503906 130c5.523438 0 10-4.476562 10-10s-4.476562-10-10-10h-.007812c-5.523438 0-9.996094 4.476562-9.996094 10s4.480469 10 10.003906 10zm0 0"/></svg>